<svg width="1800" height="2400" viewBox="0 0 1800 2400" xmlns="http://www.w3.org/2000/svg">
  <style>
    .title { font-family: Arial Black, sans-serif; font-size: 18px; font-weight: bold; fill: #333; }
    .label { font-family: Arial, sans-serif; font-size: 14px; fill: #666; }
    .button-text { font-family: Arial, sans-serif; font-size: 14px; fill: white; font-weight: bold; }
    .input-text { font-family: Arial, sans-serif; font-size: 12px; fill: #999; }
    .small-text { font-family: Arial, sans-serif; font-size: 11px; fill: #888; }
    .code-text { font-family: monospace; font-size: 32px; font-weight: bold; fill: #4CAF50; }
    .screen-title { font-family: Arial Black, sans-serif; font-size: 16px; fill: #4CAF50; }
  </style>

  <!-- ==================== -->
  <!-- 1. SPLASH SCREEN -->
  <!-- ==================== -->
  <g transform="translate(50, 50)">
    <text x="150" y="-20" class="screen-title">1. Splash</text>
    <rect width="300" height="600" rx="20" fill="#1A1A2E" stroke="#333" stroke-width="2"/>
    
    <!-- Logo -->
    <g transform="translate(75, 150)">
      <!-- Crocodile simple -->
      <ellipse cx="75" cy="60" rx="60" ry="45" fill="#4CAF50"/>
      <ellipse cx="75" cy="85" rx="50" ry="30" fill="#388E3C"/>
      <!-- Eyes -->
      <circle cx="50" cy="45" r="15" fill="#FFF9C4"/>
      <circle cx="100" cy="45" r="15" fill="#FFF9C4"/>
      <circle cx="52" cy="47" r="7" fill="#212121"/>
      <circle cx="102" cy="47" r="7" fill="#212121"/>
      <!-- Teeth -->
      <g fill="white">
        <polygon points="35,80 42,95 28,95"/>
        <polygon points="55,78 62,95 48,95"/>
        <polygon points="75,77 82,95 68,95"/>
        <polygon points="95,78 102,95 88,95"/>
        <polygon points="115,80 122,95 108,95"/>
      </g>
      <polygon points="35,80 42,95 28,95" fill="#FF5252"/>
    </g>
    
    <text x="150" y="320" font-family="Arial Black" font-size="36" fill="#4CAF50" text-anchor="middle">CROCO</text>
    <text x="150" y="360" font-family="Arial Black" font-size="36" fill="#FF5252" text-anchor="middle">BITE</text>
    
    <!-- Loading -->
    <circle cx="130" cy="450" r="8" fill="#4CAF50"/>
    <circle cx="150" cy="450" r="8" fill="#4CAF50" opacity="0.6"/>
    <circle cx="170" cy="450" r="8" fill="#4CAF50" opacity="0.3"/>
  </g>

  <!-- ==================== -->
  <!-- 2. LOGIN SCREEN -->
  <!-- ==================== -->
  <g transform="translate(400, 50)">
    <text x="150" y="-20" class="screen-title">2. Login</text>
    <rect width="300" height="600" rx="20" fill="#1A1A2E" stroke="#333" stroke-width="2"/>
    
    <!-- Logo small -->
    <text x="150" y="120" font-family="Arial Black" font-size="28" fill="#4CAF50" text-anchor="middle">CROCO</text>
    <text x="150" y="150" font-family="Arial Black" font-size="28" fill="#FF5252" text-anchor="middle">BITE</text>
    
    <text x="150" y="200" class="label" text-anchor="middle">간편하게 로그인하세요</text>
    
    <!-- Apple Login -->
    <rect x="40" y="280" width="220" height="50" rx="10" fill="#000000"/>
    <text x="150" y="312" class="button-text" text-anchor="middle"> Apple로 로그인</text>
    
    <!-- Google Login -->
    <rect x="40" y="350" width="220" height="50" rx="10" fill="#FFFFFF" stroke="#DDD"/>
    <text x="150" y="382" font-family="Arial" font-size="14" fill="#333" font-weight="bold" text-anchor="middle">G  Google로 로그인</text>
    
    <!-- Kakao Login -->
    <rect x="40" y="420" width="220" height="50" rx="10" fill="#FEE500"/>
    <text x="150" y="452" font-family="Arial" font-size="14" fill="#3C1E1E" font-weight="bold" text-anchor="middle">카카오 로그인</text>
    
    <text x="150" y="530" class="small-text" text-anchor="middle">로그인 시 이용약관에 동의하게 됩니다</text>
  </g>

  <!-- ==================== -->
  <!-- 3. SET NICKNAME -->
  <!-- ==================== -->
  <g transform="translate(750, 50)">
    <text x="150" y="-20" class="screen-title">3. Set Nickname</text>
    <rect width="300" height="600" rx="20" fill="#1A1A2E" stroke="#333" stroke-width="2"/>
    
    <text x="150" y="80" class="title" fill="white" text-anchor="middle">별명을 정해주세요</text>
    
    <!-- Profile Image -->
    <circle cx="150" cy="180" r="50" fill="#333"/>
    <text x="150" y="190" font-size="40" text-anchor="middle">🐊</text>
    <circle cx="185" cy="215" r="15" fill="#4CAF50"/>
    <text x="185" y="220" font-size="12" fill="white" text-anchor="middle">+</text>
    
    <!-- Nickname Input -->
    <rect x="40" y="280" width="220" height="50" rx="10" fill="#2A2A3E" stroke="#4CAF50" stroke-width="2"/>
    <text x="60" y="312" class="input-text">별명 입력 (2~10자)</text>
    
    <!-- Random Button -->
    <rect x="40" y="350" width="100" height="40" rx="8" fill="#333"/>
    <text x="90" y="377" class="small-text" fill="white" text-anchor="middle">🎲 랜덤</text>
    
    <!-- Duplicate Check -->
    <rect x="160" y="350" width="100" height="40" rx="8" fill="#333"/>
    <text x="210" y="377" class="small-text" fill="white" text-anchor="middle">중복확인</text>
    
    <!-- Start Button -->
    <rect x="40" y="480" width="220" height="55" rx="12" fill="#4CAF50"/>
    <text x="150" y="515" class="button-text" text-anchor="middle">시작하기</text>
  </g>

  <!-- ==================== -->
  <!-- 4. HOME SCREEN -->
  <!-- ==================== -->
  <g transform="translate(1100, 50)">
    <text x="150" y="-20" class="screen-title">4. Home</text>
    <rect width="300" height="600" rx="20" fill="#1A1A2E" stroke="#333" stroke-width="2"/>
    
    <!-- Header -->
    <text x="150" y="50" font-family="Arial Black" font-size="24" fill="#4CAF50" text-anchor="middle">CROCO BITE</text>
    
    <!-- Settings Icon -->
    <circle cx="270" cy="45" r="18" fill="#333"/>
    <text x="270" y="52" font-size="16" text-anchor="middle">⚙️</text>
    
    <!-- Profile Card -->
    <rect x="30" y="80" width="240" height="80" rx="12" fill="#2A2A3E"/>
    <circle cx="70" cy="120" r="25" fill="#333"/>
    <text x="70" y="128" font-size="24" text-anchor="middle">🐊</text>
    <text x="120" y="110" font-family="Arial" font-size="16" fill="white" font-weight="bold">악어사냥꾼</text>
    <text x="120" y="135" class="small-text">0승 0패</text>
    
    <!-- Create Room Button -->
    <rect x="30" y="200" width="240" height="120" rx="15" fill="#4CAF50"/>
    <text x="150" y="250" font-size="40" text-anchor="middle">🏠</text>
    <text x="150" y="290" class="button-text" text-anchor="middle">방 만들기</text>
    
    <!-- Join Room -->
    <rect x="30" y="340" width="240" height="120" rx="15" fill="#FF5252"/>
    <text x="150" y="390" font-size="40" text-anchor="middle">🚪</text>
    <text x="150" y="430" class="button-text" text-anchor="middle">코드로 입장</text>
    
    <!-- Bottom Nav -->
    <rect x="0" y="520" width="300" height="80" fill="#2A2A3E"/>
    <text x="75" y="565" font-size="24" text-anchor="middle">🏠</text>
    <text x="150" y="565" font-size="24" text-anchor="middle">🏆</text>
    <text x="225" y="565" font-size="24" text-anchor="middle">👤</text>
  </g>

  <!-- ==================== -->
  <!-- 5. CREATE ROOM (초대코드 표시) -->
  <!-- ==================== -->
  <g transform="translate(1450, 50)">
    <text x="150" y="-20" class="screen-title">5. Room Created</text>
    <rect width="300" height="600" rx="20" fill="#1A1A2E" stroke="#333" stroke-width="2"/>
    
    <!-- Back Button -->
    <text x="30" y="45" font-size="24" fill="white">←</text>
    <text x="150" y="50" class="title" fill="white" text-anchor="middle">방 생성 완료</text>
    
    <!-- Code Display -->
    <rect x="30" y="100" width="240" height="140" rx="15" fill="#2A2A3E" stroke="#4CAF50" stroke-width="2"/>
    <text x="150" y="145" class="label" text-anchor="middle">초대 코드</text>
    <text x="150" y="200" class="code-text" text-anchor="middle">ABC123</text>
    
    <!-- Copy & Share Buttons -->
    <rect x="30" y="260" width="110" height="45" rx="10" fill="#333"/>
    <text x="85" y="290" class="small-text" fill="white" text-anchor="middle">📋 복사</text>
    
    <rect x="160" y="260" width="110" height="45" rx="10" fill="#333"/>
    <text x="215" y="290" class="small-text" fill="white" text-anchor="middle">📤 공유</text>
    
    <!-- Waiting -->
    <text x="150" y="360" class="label" text-anchor="middle">친구를 기다리는 중...</text>
    
    <!-- Players -->
    <rect x="30" y="390" width="240" height="60" rx="10" fill="#2A2A3E"/>
    <circle cx="60" cy="420" r="18" fill="#4CAF50"/>
    <text x="60" y="427" font-size="16" text-anchor="middle">🐊</text>
    <text x="100" y="425" font-size="14" fill="white">악어사냥꾼 (나)</text>
    <text x="245" y="425" font-size="12" fill="#4CAF50">방장</text>
    
    <rect x="30" y="460" width="240" height="60" rx="10" fill="#2A2A3E" stroke-dasharray="5,5" stroke="#666"/>
    <text x="150" y="497" class="small-text" text-anchor="middle">대기 중...</text>
    
    <!-- Start Button (disabled) -->
    <rect x="30" y="530" width="240" height="50" rx="12" fill="#666"/>
    <text x="150" y="562" class="button-text" text-anchor="middle">2명 이상 필요</text>
  </g>

  <!-- ==================== ROW 2 ==================== -->
  
  <!-- ==================== -->
  <!-- 6. JOIN ROOM (코드 입력) -->
  <!-- ==================== -->
  <g transform="translate(50, 720)">
    <text x="150" y="-20" class="screen-title">6. Join Room</text>
    <rect width="300" height="600" rx="20" fill="#1A1A2E" stroke="#333" stroke-width="2"/>
    
    <!-- Back Button -->
    <text x="30" y="45" font-size="24" fill="white">←</text>
    <text x="150" y="50" class="title" fill="white" text-anchor="middle">코드로 입장</text>
    
    <!-- Code Input -->
    <text x="150" y="150" class="label" text-anchor="middle">초대 코드를 입력하세요</text>
    
    <g transform="translate(35, 180)">
      <rect x="0" y="0" width="38" height="50" rx="8" fill="#2A2A3E" stroke="#4CAF50" stroke-width="2"/>
      <rect x="43" y="0" width="38" height="50" rx="8" fill="#2A2A3E" stroke="#4CAF50" stroke-width="2"/>
      <rect x="86" y="0" width="38" height="50" rx="8" fill="#2A2A3E" stroke="#4CAF50" stroke-width="2"/>
      <rect x="129" y="0" width="38" height="50" rx="8" fill="#2A2A3E" stroke="#4CAF50" stroke-width="2"/>
      <rect x="172" y="0" width="38" height="50" rx="8" fill="#2A2A3E" stroke="#4CAF50" stroke-width="2"/>
      <rect x="215" y="0" width="38" height="50" rx="8" fill="#2A2A3E" stroke="#4CAF50" stroke-width="2"/>
      
      <text x="19" y="35" font-family="monospace" font-size="24" fill="white" text-anchor="middle">A</text>
      <text x="62" y="35" font-family="monospace" font-size="24" fill="white" text-anchor="middle">B</text>
      <text x="105" y="35" font-family="monospace" font-size="24" fill="white" text-anchor="middle">C</text>
      <text x="148" y="35" font-family="monospace" font-size="24" fill="#666" text-anchor="middle">_</text>
      <text x="191" y="35" font-family="monospace" font-size="24" fill="#666" text-anchor="middle">_</text>
      <text x="234" y="35" font-family="monospace" font-size="24" fill="#666" text-anchor="middle">_</text>
    </g>
    
    <!-- Keypad -->
    <g transform="translate(30, 280)">
      <rect x="0" y="0" width="75" height="50" rx="8" fill="#333"/>
      <text x="37" y="33" font-size="20" fill="white" text-anchor="middle">1</text>
      <rect x="82" y="0" width="75" height="50" rx="8" fill="#333"/>
      <text x="119" y="33" font-size="20" fill="white" text-anchor="middle">2</text>
      <rect x="164" y="0" width="75" height="50" rx="8" fill="#333"/>
      <text x="201" y="33" font-size="20" fill="white" text-anchor="middle">3</text>
      
      <rect x="0" y="58" width="75" height="50" rx="8" fill="#333"/>
      <text x="37" y="91" font-size="20" fill="white" text-anchor="middle">4</text>
      <rect x="82" y="58" width="75" height="50" rx="8" fill="#333"/>
      <text x="119" y="91" font-size="20" fill="white" text-anchor="middle">5</text>
      <rect x="164" y="58" width="75" height="50" rx="8" fill="#333"/>
      <text x="201" y="91" font-size="20" fill="white" text-anchor="middle">6</text>
      
      <rect x="0" y="116" width="75" height="50" rx="8" fill="#333"/>
      <text x="37" y="149" font-size="20" fill="white" text-anchor="middle">7</text>
      <rect x="82" y="116" width="75" height="50" rx="8" fill="#333"/>
      <text x="119" y="149" font-size="20" fill="white" text-anchor="middle">8</text>
      <rect x="164" y="116" width="75" height="50" rx="8" fill="#333"/>
      <text x="201" y="149" font-size="20" fill="white" text-anchor="middle">9</text>
      
      <rect x="82" y="174" width="75" height="50" rx="8" fill="#333"/>
      <text x="119" y="207" font-size="20" fill="white" text-anchor="middle">0</text>
      <rect x="164" y="174" width="75" height="50" rx="8" fill="#FF5252"/>
      <text x="201" y="207" font-size="16" fill="white" text-anchor="middle">⌫</text>
    </g>
    
    <!-- Join Button -->
    <rect x="30" y="530" width="240" height="50" rx="12" fill="#4CAF50"/>
    <text x="150" y="562" class="button-text" text-anchor="middle">입장하기</text>
  </g>

  <!-- ==================== -->
  <!-- 7. WAITING ROOM -->
  <!-- ==================== -->
  <g transform="translate(400, 720)">
    <text x="150" y="-20" class="screen-title">7. Waiting Room</text>
    <rect width="300" height="600" rx="20" fill="#1A1A2E" stroke="#333" stroke-width="2"/>
    
    <!-- Header -->
    <text x="30" y="45" font-size="24" fill="white">←</text>
    <text x="150" y="50" class="title" fill="white" text-anchor="middle">대기실</text>
    
    <!-- Room Code -->
    <rect x="200" y="25" width="80" height="30" rx="6" fill="#2A2A3E"/>
    <text x="240" y="47" font-family="monospace" font-size="14" fill="#4CAF50" text-anchor="middle">ABC123</text>
    
    <!-- Players List -->
    <text x="30" y="100" class="label">참가자 (3/4)</text>
    
    <!-- Player 1 (Host) -->
    <rect x="20" y="115" width="260" height="70" rx="12" fill="#2A2A3E"/>
    <circle cx="55" cy="150" r="22" fill="#4CAF50"/>
    <text x="55" y="158" font-size="20" text-anchor="middle">🐊</text>
    <text x="95" y="142" font-size="14" fill="white" font-weight="bold">악어사냥꾼</text>
    <text x="95" y="162" class="small-text">5승 2패</text>
    <rect x="200" y="138" width="60" height="24" rx="6" fill="#4CAF50"/>
    <text x="230" y="155" font-size="11" fill="white" text-anchor="middle">방장</text>
    
    <!-- Player 2 -->
    <rect x="20" y="195" width="260" height="70" rx="12" fill="#2A2A3E"/>
    <circle cx="55" cy="230" r="22" fill="#FF9800"/>
    <text x="55" y="238" font-size="20" text-anchor="middle">🦊</text>
    <text x="95" y="222" font-size="14" fill="white" font-weight="bold">이빨요정</text>
    <text x="95" y="242" class="small-text">3승 5패</text>
    <rect x="200" y="218" width="60" height="24" rx="6" fill="#666"/>
    <text x="230" y="235" font-size="11" fill="white" text-anchor="middle">준비완료</text>
    
    <!-- Player 3 (Me) -->
    <rect x="20" y="275" width="260" height="70" rx="12" fill="#2A2A3E" stroke="#4CAF50" stroke-width="2"/>
    <circle cx="55" cy="310" r="22" fill="#2196F3"/>
    <text x="55" y="318" font-size="20" text-anchor="middle">🐸</text>
    <text x="95" y="302" font-size="14" fill="white" font-weight="bold">나야나 (나)</text>
    <text x="95" y="322" class="small-text">1승 0패</text>
    <rect x="200" y="298" width="60" height="24" rx="6" fill="#FF5252"/>
    <text x="230" y="315" font-size="11" fill="white" text-anchor="middle">준비 전</text>
    
    <!-- Empty Slot -->
    <rect x="20" y="355" width="260" height="70" rx="12" fill="transparent" stroke="#666" stroke-width="2" stroke-dasharray="5,5"/>
    <text x="150" y="397" class="small-text" text-anchor="middle">빈 자리</text>
    
    <!-- Ready Button -->
    <rect x="20" y="450" width="260" height="55" rx="12" fill="#FF5252"/>
    <text x="150" y="485" class="button-text" text-anchor="middle">준비하기</text>
    
    <!-- Start Button (Host only, disabled) -->
    <rect x="20" y="515" width="260" height="55" rx="12" fill="#666"/>
    <text x="150" y="550" class="button-text" text-anchor="middle">모두 준비 필요</text>
  </g>

  <!-- ==================== -->
  <!-- 8. GAME SCREEN -->
  <!-- ==================== -->
  <g transform="translate(750, 720)">
    <text x="150" y="-20" class="screen-title">8. Game</text>
    <rect width="300" height="600" rx="20" fill="#1A1A2E" stroke="#333" stroke-width="2"/>
    
    <!-- Current Turn -->
    <rect x="20" y="20" width="260" height="50" rx="10" fill="#FF5252"/>
    <text x="150" y="52" class="button-text" text-anchor="middle">🦊 이빨요정의 차례!</text>
    
    <!-- Timer -->
    <text x="150" y="100" font-family="Arial Black" font-size="32" fill="white" text-anchor="middle">0:15</text>
    
    <!-- Crocodile Game Board -->
    <g transform="translate(30, 130)">
      <!-- Crocodile body -->
      <ellipse cx="120" cy="100" rx="110" ry="80" fill="#4CAF50"/>
      <ellipse cx="120" cy="140" rx="95" ry="55" fill="#388E3C"/>
      
      <!-- Mouth area -->
      <ellipse cx="120" cy="130" rx="80" ry="40" fill="#1B5E20"/>
      
      <!-- Upper Teeth (clickable) -->
      <g>
        <!-- Row 1 -->
        <rect x="30" y="100" width="22" height="30" rx="4" fill="white" stroke="#DDD"/>
        <rect x="57" y="95" width="22" height="35" rx="4" fill="white" stroke="#DDD"/>
        <rect x="84" y="93" width="22" height="37" rx="4" fill="#666" stroke="#444"/>
        <rect x="111" y="93" width="22" height="37" rx="4" fill="white" stroke="#DDD"/>
        <rect x="138" y="95" width="22" height="35" rx="4" fill="white" stroke="#DDD"/>
        <rect x="165" y="95" width="22" height="35" rx="4" fill="white" stroke="#DDD"/>
        <rect x="192" y="100" width="22" height="30" rx="4" fill="white" stroke="#DDD"/>
      </g>
      
      <!-- Lower Teeth -->
      <g>
        <rect x="40" y="155" width="20" height="28" rx="4" fill="white" stroke="#DDD"/>
        <rect x="65" y="152" width="20" height="31" rx="4" fill="#666" stroke="#444"/>
        <rect x="90" y="150" width="20" height="33" rx="4" fill="white" stroke="#DDD"/>
        <rect x="115" y="150" width="20" height="33" rx="4" fill="white" stroke="#DDD"/>
        <rect x="140" y="152" width="20" height="31" rx="4" fill="white" stroke="#DDD"/>
        <rect x="165" y="155" width="20" height="28" rx="4" fill="white" stroke="#DDD"/>
      </g>
      
      <!-- Eyes -->
      <circle cx="70" cy="55" r="22" fill="#FFF9C4"/>
      <circle cx="170" cy="55" r="22" fill="#FFF9C4"/>
      <circle cx="73" cy="58" r="10" fill="#212121"/>
      <circle cx="173" cy="58" r="10" fill="#212121"/>
    </g>
    
    <text x="150" y="360" class="small-text" text-anchor="middle">회색 = 이미 누른 이빨</text>
    
    <!-- Players Status -->
    <g transform="translate(20, 380)">
      <rect width="125" height="50" rx="8" fill="#2A2A3E"/>
      <circle cx="25" cy="25" r="15" fill="#4CAF50"/>
      <text x="25" y="30" font-size="12" text-anchor="middle">🐊</text>
      <text x="55" y="22" font-size="11" fill="white">악어사냥꾼</text>
      <text x="55" y="38" font-size="10" fill="#4CAF50">생존</text>
      
      <rect x="135" width="125" height="50" rx="8" fill="#2A2A3E" stroke="#FF5252" stroke-width="2"/>
      <circle cx="160" cy="25" r="15" fill="#FF9800"/>
      <text x="160" y="30" font-size="12" text-anchor="middle">🦊</text>
      <text x="190" y="22" font-size="11" fill="white">이빨요정</text>
      <text x="190" y="38" font-size="10" fill="#FF5252">선택 중</text>
    </g>
    
    <g transform="translate(20, 440)">
      <rect width="125" height="50" rx="8" fill="#2A2A3E"/>
      <circle cx="25" cy="25" r="15" fill="#2196F3"/>
      <text x="25" y="30" font-size="12" text-anchor="middle">🐸</text>
      <text x="55" y="22" font-size="11" fill="white">나야나</text>
      <text x="55" y="38" font-size="10" fill="#4CAF50">생존</text>
      
      <rect x="135" width="125" height="50" rx="8" fill="#2A2A3E" opacity="0.5"/>
      <circle cx="160" cy="25" r="15" fill="#666"/>
      <text x="160" y="30" font-size="12" text-anchor="middle">💀</text>
      <text x="190" y="22" font-size="11" fill="#888">플레이어4</text>
      <text x="190" y="38" font-size="10" fill="#FF5252">탈락</text>
    </g>
    
    <!-- Emoji reactions -->
    <rect x="20" y="510" width="260" height="50" rx="10" fill="#2A2A3E"/>
    <text x="60" y="542" font-size="24" text-anchor="middle">😂</text>
    <text x="110" y="542" font-size="24" text-anchor="middle">😱</text>
    <text x="160" y="542" font-size="24" text-anchor="middle">🔥</text>
    <text x="210" y="542" font-size="24" text-anchor="middle">👏</text>
    <text x="260" y="542" font-size="24" text-anchor="middle">😈</text>
  </g>

  <!-- ==================== -->
  <!-- 9. RESULT SCREEN -->
  <!-- ==================== -->
  <g transform="translate(1100, 720)">
    <text x="150" y="-20" class="screen-title">9. Result</text>
    <rect width="300" height="600" rx="20" fill="#1A1A2E" stroke="#333" stroke-width="2"/>
    
    <!-- Winner Banner -->
    <rect x="0" y="30" width="300" height="100" fill="#4CAF50"/>
    <text x="150" y="70" font-size="24" text-anchor="middle">🏆</text>
    <text x="150" y="105" font-family="Arial Black" font-size="24" fill="white" text-anchor="middle">악어사냥꾼 승리!</text>
    
    <!-- Rankings -->
    <text x="30" y="170" class="label">최종 순위</text>
    
    <!-- 1st -->
    <rect x="20" y="185" width="260" height="60" rx="10" fill="#FFD700" opacity="0.2"/>
    <text x="45" y="222" font-size="20" text-anchor="middle">🥇</text>
    <circle cx="85" cy="215" r="18" fill="#4CAF50"/>
    <text x="85" y="222" font-size="14" text-anchor="middle">🐊</text>
    <text x="120" y="212" font-size="14" fill="white" font-weight="bold">악어사냥꾼</text>
    <text x="120" y="230" class="small-text">+10 포인트</text>
    
    <!-- 2nd -->
    <rect x="20" y="255" width="260" height="60" rx="10" fill="#C0C0C0" opacity="0.2"/>
    <text x="45" y="292" font-size="20" text-anchor="middle">🥈</text>
    <circle cx="85" cy="285" r="18" fill="#2196F3"/>
    <text x="85" y="292" font-size="14" text-anchor="middle">🐸</text>
    <text x="120" y="282" font-size="14" fill="white" font-weight="bold">나야나 (나)</text>
    <text x="120" y="300" class="small-text">+5 포인트</text>
    
    <!-- 3rd -->
    <rect x="20" y="325" width="260" height="60" rx="10" fill="#CD7F32" opacity="0.2"/>
    <text x="45" y="362" font-size="20" text-anchor="middle">🥉</text>
    <circle cx="85" cy="355" r="18" fill="#FF9800"/>
    <text x="85" y="362" font-size="14" text-anchor="middle">🦊</text>
    <text x="120" y="352" font-size="14" fill="white" font-weight="bold">이빨요정</text>
    <text x="120" y="370" class="small-text">+2 포인트</text>
    
    <!-- 4th -->
    <rect x="20" y="395" width="260" height="60" rx="10" fill="#333"/>
    <text x="45" y="432" font-size="18" fill="#888" text-anchor="middle">4</text>
    <circle cx="85" cy="425" r="18" fill="#666"/>
    <text x="85" y="432" font-size="14" text-anchor="middle">💀</text>
    <text x="120" y="422" font-size="14" fill="#888" font-weight="bold">플레이어4</text>
    <text x="120" y="440" class="small-text">0 포인트</text>
    
    <!-- Buttons -->
    <rect x="20" y="480" width="125" height="50" rx="10" fill="#4CAF50"/>
    <text x="82" y="512" class="button-text" text-anchor="middle">한판 더</text>
    
    <rect x="155" y="480" width="125" height="50" rx="10" fill="#333"/>
    <text x="217" y="512" class="button-text" text-anchor="middle">나가기</text>
    
    <!-- Ad Banner -->
    <rect x="20" y="545" width="260" height="40" rx="8" fill="#2A2A3E" stroke="#666"/>
    <text x="150" y="572" class="small-text" text-anchor="middle">광고 영역</text>
  </g>

  <!-- ==================== -->
  <!-- 10. SETTINGS SCREEN -->
  <!-- ==================== -->
  <g transform="translate(1450, 720)">
    <text x="150" y="-20" class="screen-title">10. Settings</text>
    <rect width="300" height="600" rx="20" fill="#1A1A2E" stroke="#333" stroke-width="2"/>
    
    <!-- Header -->
    <text x="30" y="45" font-size="24" fill="white">←</text>
    <text x="150" y="50" class="title" fill="white" text-anchor="middle">설정</text>
    
    <!-- Sound -->
    <rect x="20" y="80" width="260" height="55" rx="10" fill="#2A2A3E"/>
    <text x="40" y="115" font-size="14" fill="white">🔊  소리</text>
    <rect x="200" y="97" width="60" height="26" rx="13" fill="#4CAF50"/>
    <circle cx="243" cy="110" r="10" fill="white"/>
    
    <!-- Vibration -->
    <rect x="20" y="145" width="260" height="55" rx="10" fill="#2A2A3E"/>
    <text x="40" y="180" font-size="14" fill="white">📳  진동</text>
    <rect x="200" y="162" width="60" height="26" rx="13" fill="#4CAF50"/>
    <circle cx="243" cy="175" r="10" fill="white"/>
    
    <!-- Push Notification -->
    <rect x="20" y="210" width="260" height="55" rx="10" fill="#2A2A3E"/>
    <text x="40" y="245" font-size="14" fill="white">🔔  푸시 알림</text>
    <rect x="200" y="227" width="60" height="26" rx="13" fill="#666"/>
    <circle cx="217" cy="240" r="10" fill="white"/>
    
    <!-- Nickname Change -->
    <rect x="20" y="285" width="260" height="55" rx="10" fill="#2A2A3E"/>
    <text x="40" y="320" font-size="14" fill="white">✏️  별명 변경</text>
    <text x="260" y="320" font-size="18" fill="#666" text-anchor="end">›</text>
    
    <!-- Divider -->
    <line x1="20" y1="360" x2="280" y2="360" stroke="#333" stroke-width="1"/>
    
    <!-- Terms -->
    <rect x="20" y="375" width="260" height="45" rx="10" fill="#2A2A3E"/>
    <text x="40" y="405" font-size="13" fill="#888">이용약관</text>
    <text x="260" y="405" font-size="18" fill="#666" text-anchor="end">›</text>
    
    <!-- Privacy -->
    <rect x="20" y="425" width="260" height="45" rx="10" fill="#2A2A3E"/>
    <text x="40" y="455" font-size="13" fill="#888">개인정보처리방침</text>
    <text x="260" y="455" font-size="18" fill="#666" text-anchor="end">›</text>
    
    <!-- Version -->
    <text x="150" y="500" class="small-text" text-anchor="middle">버전 1.0.0</text>
    
    <!-- Logout -->
    <rect x="20" y="520" width="125" height="45" rx="10" fill="#333"/>
    <text x="82" y="550" font-size="13" fill="white" text-anchor="middle">로그아웃</text>
    
    <!-- Delete Account -->
    <rect x="155" y="520" width="125" height="45" rx="10" fill="#FF5252" opacity="0.3"/>
    <text x="217" y="550" font-size="13" fill="#FF5252" text-anchor="middle">회원탈퇴</text>
  </g>

  <!-- ==================== -->
  <!-- FLOW DIAGRAM -->
  <!-- ==================== -->
  <g transform="translate(50, 1400)">
    <text x="0" y="0" font-family="Arial Black" font-size="24" fill="#4CAF50">📱 MVP Flow</text>
    
    <rect x="0" y="30" width="1700" height="200" rx="15" fill="#2A2A3E"/>
    
    <!-- Flow boxes -->
    <rect x="30" y="70" width="100" height="50" rx="8" fill="#4CAF50"/>
    <text x="80" y="102" font-size="12" fill="white" text-anchor="middle">Splash</text>
    
    <text x="150" y="100" font-size="20" fill="white">→</text>
    
    <rect x="170" y="70" width="100" height="50" rx="8" fill="#4CAF50"/>
    <text x="220" y="102" font-size="12" fill="white" text-anchor="middle">Login</text>
    
    <text x="290" y="100" font-size="20" fill="white">→</text>
    
    <rect x="310" y="70" width="100" height="50" rx="8" fill="#4CAF50"/>
    <text x="360" y="102" font-size="12" fill="white" text-anchor="middle">Nickname</text>
    
    <text x="430" y="100" font-size="20" fill="white">→</text>
    
    <rect x="450" y="70" width="100" height="50" rx="8" fill="#FF9800"/>
    <text x="500" y="102" font-size="12" fill="white" text-anchor="middle">Home</text>
    
    <!-- Branch from Home -->
    <line x1="500" y1="120" x2="500" y2="160" stroke="white" stroke-width="2"/>
    <line x1="500" y1="160" x2="650" y2="160" stroke="white" stroke-width="2"/>
    <line x1="500" y1="160" x2="350" y2="160" stroke="white" stroke-width="2"/>
    
    <!-- Settings branch -->
    <rect x="300" y="145" width="100" height="40" rx="8" fill="#666"/>
    <text x="350" y="172" font-size="11" fill="white" text-anchor="middle">Settings</text>
    
    <!-- Create Room branch -->
    <rect x="600" y="140" width="100" height="50" rx="8" fill="#4CAF50"/>
    <text x="650" y="165" font-size="11" fill="white" text-anchor="middle">방 만들기</text>
    <text x="650" y="180" font-size="10" fill="white" text-anchor="middle">(코드 생성)</text>
    
    <text x="720" y="170" font-size="20" fill="white">→</text>
    
    <!-- Join Room branch -->
    <rect x="600" y="70" width="100" height="50" rx="8" fill="#FF5252"/>
    <text x="650" y="95" font-size="11" fill="white" text-anchor="middle">코드 입력</text>
    <text x="650" y="110" font-size="10" fill="white" text-anchor="middle">(입장)</text>
    
    <line x1="700" y1="95" x2="740" y2="95" stroke="white" stroke-width="2"/>
    <line x1="740" y1="95" x2="740" y2="150" stroke="white" stroke-width="2"/>
    
    <!-- Waiting Room -->
    <rect x="760" y="125" width="100" height="50" rx="8" fill="#2196F3"/>
    <text x="810" y="157" font-size="12" fill="white" text-anchor="middle">대기실</text>
    
    <text x="880" y="155" font-size="20" fill="white">→</text>
    
    <!-- Game -->
    <rect x="900" y="125" width="100" height="50" rx="8" fill="#FF5252"/>
    <text x="950" y="157" font-size="12" fill="white" text-anchor="middle">Game</text>
    
    <text x="1020" y="155" font-size="20" fill="white">→</text>
    
    <!-- Result -->
    <rect x="1040" y="125" width="100" height="50" rx="8" fill="#FFD700"/>
    <text x="1090" y="157" font-size="12" fill="black" text-anchor="middle">Result</text>
    
    <!-- Loop back -->
    <path d="M1140 150 Q1200 150 1200 90 Q1200 50 500 50 Q500 70 500 70" stroke="#4CAF50" stroke-width="2" fill="none" stroke-dasharray="5,5"/>
    <text x="1160" y="85" font-size="11" fill="#4CAF50">한판 더 / 나가기</text>
  </g>
</svg>
